# xmcd
#
# Track frame offsets:
#	225
#	17075
#	36400
#	56127
#	71246
#	91237
#	106665
#	124717
#	140693
#	158104
#	171503
#	184686
#
# Disc length: 2662 seconds
#
# Revision: 2
# Processed by: cddbd v1.5.2PL0 Copyright (c) Steve Scherf et al.
# Submitted via: dBpowerAMP V4.0
#
DISCID=aa0a630c
DTITLE=Doc Walker - Doc Walker
DYEAR=2006
DGENRE=Country
TTITLE0=Maria
TTITLE1=Trying To Get Back To You
TTITLE2=My Life
TTITLE3=What Do You See
TTITLE4=That Train
TTITLE5=I'm Just Gone
TTITLE6=Driving With The Brakes on
TTITLE7=Keri
TTITLE8=She's My Remedy
TTITLE9=Comes A Time
TTITLE10=This Is My Life (And I'm Alright)
TTITLE11=Your Mama Don't Know
EXTD=Canadian Country Music Group
EXTT0=
EXTT1=
EXTT2=
EXTT3=
EXTT4=
EXTT5=
EXTT6=
EXTT7=
EXTT8=
EXTT9=
EXTT10=
EXTT11=
PLAYORDER=
